<?xml version="1.0" standalone="no"?>
<!DOCTYPE svg PUBLIC "-//W3C//DTD SVG 20010904//EN"
 "http://www.w3.org/TR/2001/REC-SVG-20010904/DTD/svg10.dtd">
<svg version="1.0" xmlns="http://www.w3.org/2000/svg"
 width="851.000000pt" height="315.000000pt" viewBox="0 0 851.000000 315.000000"
 preserveAspectRatio="xMidYMid meet">

<g transform="translate(0.000000,315.000000) scale(0.100000,-0.100000)"
fill="#fc271c" stroke="none">
<path d="M0 1575 l0 -1575 4255 0 4255 0 0 1575 0 1575 -4255 0 -4255 0 0
-1575z m3505 829 c27 -27 15 -67 -22 -79 -22 -6 -33 -15 -33 -27 0 -10 -7 -18
-15 -18 -12 0 -15 14 -15 70 l0 70 34 0 c19 0 42 -7 51 -16z m179 -5 c55 -43
21 -119 -54 -119 l-40 0 0 70 0 70 34 0 c19 0 45 -9 60 -21z m196 6 c0 -10
-11 -15 -35 -15 -24 0 -35 -5 -35 -15 0 -10 10 -15 31 -15 38 0 35 -24 -4 -28
-21 -3 -27 -9 -27 -28 0 -15 -6 -24 -15 -24 -12 0 -15 14 -15 70 l0 70 50 0
c38 0 50 -4 50 -15z m160 0 c0 -10 -10 -15 -30 -15 -20 0 -30 -5 -30 -15 0
-10 10 -15 30 -15 17 0 30 -4 30 -10 0 -5 -13 -10 -30 -10 -42 0 -40 -28 2
-32 55 -5 46 -28 -11 -28 l-51 0 0 70 0 70 45 0 c33 0 45 -4 45 -15z m181 -3
c16 -13 22 -28 20 -50 -4 -75 -2 -72 -53 -72 -37 0 -50 5 -62 22 -22 31 -20
68 6 95 26 28 58 29 89 5z m129 -38 c4 -38 9 -50 24 -52 25 -5 36 14 36 66 0
31 4 42 15 42 21 0 20 -88 -1 -118 -18 -26 -75 -30 -94 -7 -14 17 -25 88 -16
110 11 31 31 9 36 -41z m198 -17 c3 -62 1 -67 -18 -67 -18 0 -20 6 -20 63 0
35 3 67 7 71 17 17 28 -6 31 -67z m164 56 c10 -9 18 -23 18 -31 0 -22 -30 -52
-52 -52 -11 0 -18 -7 -18 -20 0 -13 -7 -20 -20 -20 -18 0 -20 7 -20 63 0 35 3
67 7 70 12 13 67 7 85 -10z m162 11 c9 -3 16 -12 16 -20 0 -10 -8 -12 -30 -7
-42 8 -39 -13 5 -31 36 -16 46 -41 23 -64 -14 -14 -67 -16 -88 -2 -22 14 -3
25 36 21 42 -3 44 7 4 21 -41 14 -53 39 -34 66 15 22 38 27 68 16z m632 -272
c20 -13 23 -53 7 -105 -21 -70 -56 -129 -128 -212 -53 -60 -93 -130 -82 -142
2 -2 25 24 52 57 52 65 79 80 102 57 14 -13 13 -21 -10 -70 -14 -30 -28 -74
-32 -98 l-7 -44 37 35 c20 19 50 61 67 93 37 68 77 95 114 78 16 -7 24 -19 24
-37 0 -24 -21 -49 -91 -108 -21 -17 -27 -86 -8 -86 13 0 58 45 110 109 19 25
38 40 42 35 6 -10 -89 -138 -120 -161 -9 -7 -26 -13 -37 -13 -24 0 -66 37 -66
59 0 10 -13 1 -34 -24 l-34 -40 -29 21 c-23 18 -28 29 -27 60 1 22 9 57 19 79
10 22 22 49 27 60 11 27 -42 -35 -93 -107 -42 -61 -65 -73 -71 -36 -2 18 -13
9 -61 -54 -32 -42 -65 -79 -73 -82 -21 -8 -45 4 -54 29 -11 30 13 145 51 243
16 42 29 80 29 84 0 5 -27 8 -60 8 -82 0 -76 17 8 25 l68 7 25 46 c29 56 67
102 82 102 7 0 18 -4 26 -9 11 -7 6 -20 -23 -68 -20 -32 -36 -62 -36 -66 0 -4
15 -7 34 -7 33 0 35 3 80 96 30 59 65 114 95 145 48 50 57 55 77 41z m-1492
-197 c-33 -233 -140 -678 -143 -593 -1 38 96 539 130 672 19 72 27 22 13 -79z
m-500 89 c36 -35 8 -113 -90 -255 -64 -93 -82 -135 -90 -214 -8 -72 9 -81 54
-29 18 21 52 69 74 107 22 37 44 67 49 67 5 0 9 11 9 25 0 34 36 70 55 55 9
-8 11 -19 6 -33 -7 -17 3 -104 12 -114 2 -1 25 11 51 27 85 54 92 27 8 -30
-46 -32 -51 -39 -52 -73 0 -44 -22 -92 -45 -101 -50 -19 -115 10 -115 50 0 16
38 58 77 84 19 13 22 21 16 57 l-6 42 -49 -82 c-83 -139 -149 -188 -189 -141
-16 19 -18 86 -5 155 8 46 8 47 -18 42 -14 -3 -28 -13 -31 -23 -11 -33 -83
-90 -114 -90 -41 0 -75 44 -68 86 5 27 3 31 -13 27 -9 -3 -30 -22 -46 -43 -63
-84 -135 -92 -163 -18 -13 34 28 123 63 140 14 6 35 26 46 45 23 40 56 44 89
9 18 -19 21 -30 15 -65 -8 -51 9 -55 51 -11 16 17 34 30 39 30 6 1 20 15 31
33 24 38 59 46 87 20 16 -15 19 -27 16 -65 -4 -41 -2 -48 12 -48 13 0 26 24
49 93 44 127 124 257 157 257 7 0 20 -7 28 -16z m1224 4 c17 -17 15 -68 -4
-113 -8 -21 -46 -84 -84 -140 -38 -56 -73 -120 -79 -141 -15 -59 -18 -136 -4
-141 31 -11 136 151 188 293 48 128 124 254 154 254 11 0 27 -10 35 -21 28
-40 4 -104 -97 -253 -66 -99 -87 -154 -87 -228 0 -73 22 -61 100 54 77 114 80
118 80 90 0 -25 -112 -195 -143 -217 -29 -20 -60 -19 -81 4 -14 15 -17 33 -14
80 1 34 3 61 2 61 0 0 -15 -21 -32 -47 -72 -112 -144 -146 -166 -78 -14 41
-14 42 -32 17 -20 -29 -45 -28 -74 3 -19 21 -22 34 -21 92 1 37 4 77 7 88 3
11 -11 -5 -31 -35 -71 -104 -95 -119 -129 -81 -45 49 -33 141 35 269 51 97
102 152 142 152 39 0 99 -37 95 -59 -5 -25 -38 -26 -45 -2 -11 43 -52 18 -104
-61 -40 -62 -89 -197 -89 -245 l0 -27 28 27 c15 15 61 78 102 141 41 63 80
117 87 120 6 2 18 -1 27 -7 15 -11 14 -18 -13 -72 -32 -65 -45 -114 -56 -212
-8 -70 0 -78 39 -38 15 15 29 46 36 80 27 130 88 279 149 363 31 42 57 52 79
30z m1946 -4 c36 -35 8 -113 -90 -255 -64 -93 -82 -135 -90 -214 -8 -72 9 -81
54 -29 18 21 52 69 74 107 22 37 44 67 49 67 5 0 9 13 9 29 0 29 34 66 50 56
4 -2 7 -28 7 -57 0 -29 3 -63 7 -75 l7 -22 50 30 c88 51 97 26 11 -30 -50 -32
-52 -36 -52 -78 0 -82 -83 -132 -141 -84 -20 16 -22 23 -14 47 6 16 29 42 52
59 34 25 40 34 36 55 -10 44 -14 42 -60 -32 -80 -132 -146 -178 -184 -132 -16
19 -18 86 -5 155 8 46 8 47 -18 42 -14 -3 -28 -13 -31 -23 -11 -33 -83 -90
-114 -90 -41 0 -75 44 -68 86 5 27 3 31 -13 27 -9 -3 -30 -22 -46 -43 -60 -80
-125 -91 -161 -27 -8 16 -17 9 -67 -56 -32 -42 -64 -78 -72 -81 -21 -8 -45 4
-54 29 -11 30 13 145 51 243 16 42 29 80 29 84 0 5 -27 8 -60 8 -82 0 -76 17
8 25 l68 7 25 46 c29 56 67 102 82 102 7 0 18 -4 26 -9 11 -7 6 -20 -23 -68
-20 -32 -36 -62 -36 -66 0 -4 19 -7 42 -7 53 0 39 -19 -18 -24 -34 -3 -41 -8
-57 -41 -28 -58 -87 -239 -87 -266 1 -23 2 -22 31 11 17 19 60 74 96 122 36
48 74 90 84 93 10 3 27 21 38 40 24 42 57 46 90 11 18 -19 21 -30 15 -65 -8
-51 9 -55 51 -11 16 17 34 30 39 30 6 1 20 15 31 33 24 38 59 46 87 20 16 -15
19 -27 16 -65 -4 -41 -2 -48 12 -48 13 0 26 24 49 93 44 127 124 257 157 257
7 0 20 -7 28 -16z m-4484 -114 c0 -79 -25 -160 -88 -289 -54 -111 -148 -146
-187 -70 -22 41 -18 46 10 15 29 -32 36 -32 62 -3 46 50 154 317 153 378 -1
22 -4 20 -42 -21 -87 -96 -212 -313 -224 -390 -7 -45 -24 -63 -48 -54 -27 10
-24 52 10 188 48 189 120 337 157 323 24 -9 21 -40 -8 -97 -23 -46 -75 -176
-75 -188 0 -3 16 20 35 53 52 85 131 189 172 225 33 30 36 30 54 14 15 -14 19
-31 19 -84z m-472 57 c2 -9 -8 -42 -22 -72 -33 -68 -50 -113 -39 -100 5 6 28
36 52 67 24 32 61 74 82 93 33 30 43 34 60 25 54 -30 36 -132 -38 -216 -33
-37 -128 -103 -152 -106 -9 0 -23 -1 -31 -2 -9 -1 -22 -27 -36 -69 -21 -71
-36 -89 -62 -80 -11 5 -13 17 -8 54 12 90 101 326 152 404 18 28 37 28 42 2z
m1176 14 c3 -5 36 -7 72 -5 91 5 80 -16 -17 -35 -41 -8 -77 -19 -81 -25 -11
-16 -71 -156 -114 -266 -47 -120 -76 -160 -113 -160 -34 0 -59 25 -72 75 -15
53 -2 56 36 10 24 -28 37 -37 45 -29 5 5 37 80 69 166 33 86 65 166 71 178 11
20 10 21 -52 14 -52 -5 -66 -3 -77 10 -8 9 -11 19 -9 22 3 3 46 12 94 20 49 7
90 18 92 24 4 12 49 13 56 1z m-2127 -16 c8 -13 21 -13 92 -5 46 6 85 9 88 7
10 -10 -58 -42 -121 -57 l-69 -15 -17 -50 c-36 -105 -39 -95 32 -95 74 0 64
-13 -22 -31 -62 -12 -52 3 -104 -156 -15 -46 -31 -83 -37 -83 -21 0 -49 21
-49 38 0 9 13 51 29 92 27 68 28 77 14 92 -14 16 -14 18 8 27 17 6 33 28 52
75 33 81 33 84 1 96 -34 13 -26 34 14 38 19 2 36 11 42 23 13 23 36 25 47 4z
m1593 0 c14 -13 30 -13 99 -4 46 5 86 8 88 5 10 -9 -74 -44 -133 -56 l-61 -12
-25 -74 -26 -74 61 0 c72 0 67 -10 -15 -30 l-61 -15 -36 -109 c-20 -60 -41
-111 -47 -113 -6 -2 -21 4 -33 14 l-22 18 30 80 c33 85 37 105 21 105 -5 0
-10 7 -10 15 0 8 8 15 18 15 14 0 26 18 45 63 39 97 39 96 12 103 -38 9 -34
44 5 44 19 0 34 7 42 20 15 24 26 25 48 5z m5115 -165 c17 -19 23 -79 10 -100
-4 -6 2 -10 13 -10 11 0 27 16 41 40 22 39 52 53 66 30 3 -5 -8 -39 -24 -74
-17 -35 -31 -67 -31 -70 0 -20 26 2 71 59 69 89 106 86 74 -5 -8 -23 -13 -45
-10 -48 2 -3 20 11 38 32 34 37 47 44 47 26 0 -17 -79 -97 -100 -103 -23 -6
-50 16 -50 40 0 10 -13 3 -41 -21 -55 -51 -74 -45 -74 21 1 63 -9 61 -80 -14
-68 -71 -111 -71 -147 0 l-14 28 -42 -33 c-34 -27 -45 -46 -68 -113 -57 -170
-100 -224 -159 -197 -59 27 -36 90 72 201 78 79 121 182 45 108 -20 -20 -52
-42 -71 -48 -30 -11 -36 -10 -48 7 -17 22 -12 52 19 131 25 61 50 85 69 66 9
-9 6 -23 -11 -59 -28 -60 -37 -114 -20 -114 14 0 130 117 130 131 0 5 11 9 25
9 30 0 34 -27 9 -65 -35 -54 -4 -42 66 25 41 39 78 74 83 78 4 4 17 19 28 35
24 32 59 35 84 7z m-6330 -22 c46 -21 30 -70 -40 -118 -41 -28 -45 -35 -45
-70 0 -22 5 -40 10 -40 17 0 92 83 120 130 31 55 83 110 103 110 8 0 25 -8 38
-19 20 -16 21 -21 10 -47 -10 -25 -44 -57 -87 -82 -6 -4 -15 -26 -19 -49 -5
-34 -4 -43 8 -43 15 0 91 77 121 123 10 15 22 27 27 27 21 0 5 -30 -57 -102
-52 -63 -70 -78 -93 -78 -35 0 -58 25 -63 68 l-3 34 -30 -41 c-16 -22 -40 -46
-53 -52 -34 -19 -75 -1 -87 38 l-11 32 -23 -35 c-28 -41 -83 -77 -105 -68 -29
11 -30 52 -3 115 23 54 24 59 7 59 -26 0 -43 26 -36 55 7 29 27 40 53 31 12
-5 14 -9 5 -18 -20 -20 -14 -38 12 -38 32 0 50 -23 37 -48 -6 -10 -19 -42 -31
-71 -15 -39 -17 -50 -6 -44 17 9 116 138 116 150 0 5 12 25 26 46 21 31 41 47
71 56 1 1 14 -4 28 -11z m3745 -323 c37 -44 -23 -189 -128 -312 -59 -70 -92
-126 -80 -138 2 -2 27 26 56 61 40 50 58 64 75 62 30 -4 32 -34 6 -94 -12 -27
-23 -67 -26 -89 l-4 -40 54 60 c31 33 58 57 61 54 7 -7 -63 -118 -93 -148 -26
-26 -36 -26 -61 -1 -28 28 -25 74 10 150 l30 65 -40 -45 c-22 -25 -54 -66 -71
-92 -34 -52 -55 -60 -68 -26 l-8 22 -12 -22 c-21 -39 -111 -142 -125 -142 -7
0 -21 9 -31 20 -16 18 -18 28 -9 80 l10 60 -21 -20 c-28 -26 -39 -25 -67 8
-21 25 -26 26 -57 16 -23 -7 -40 -22 -52 -47 -20 -37 -63 -77 -85 -77 -30 0
-46 32 -42 82 l5 49 -32 -35 c-54 -59 -104 -58 -105 2 0 32 36 131 56 153 42
47 53 7 20 -75 -14 -35 -26 -72 -26 -81 0 -29 37 1 81 66 42 63 63 79 80 62 7
-7 6 -25 -4 -54 -21 -64 -31 -129 -19 -129 15 0 72 103 72 128 0 25 45 80 56
69 7 -7 4 -20 -21 -81 -8 -17 -6 -17 23 -2 19 10 35 28 42 50 12 36 30 49 55
40 19 -7 19 -13 1 -50 -19 -39 -29 -74 -21 -74 33 0 86 70 114 153 l20 57 -33
0 c-19 0 -39 -7 -46 -15 -7 -8 -9 -15 -4 -15 5 -1 -2 -10 -15 -21 -33 -27 -41
-10 -22 51 10 35 20 50 32 50 10 0 21 -4 24 -10 3 -5 23 -10 43 -9 35 0 39 3
68 62 35 70 72 99 98 78 15 -12 14 -17 -7 -45 -13 -17 -32 -46 -41 -63 l-17
-33 39 0 c38 0 39 1 72 73 45 94 107 185 139 202 33 18 36 18 51 0z m1724
-106 c28 -40 4 -104 -97 -253 -66 -99 -87 -154 -87 -228 0 -41 3 -49 17 -46
16 3 100 120 165 232 31 53 66 71 103 54 46 -21 29 -70 -40 -118 -41 -28 -45
-35 -45 -70 0 -22 3 -40 6 -40 17 0 64 44 99 94 39 55 60 70 53 41 -5 -23
-100 -142 -125 -156 -32 -18 -72 -3 -87 32 l-12 29 -39 -55 c-59 -86 -102
-106 -140 -65 -14 15 -17 32 -13 85 l4 65 -23 -25 c-29 -30 -40 -31 -68 -5
-21 19 -21 19 -63 -1 -35 -18 -43 -28 -52 -62 -14 -57 -41 -107 -65 -123 -18
-12 -24 -11 -43 2 -50 35 -10 231 86 418 55 107 95 156 127 156 71 0 22 -133
-106 -290 -47 -57 -60 -82 -78 -148 -11 -43 -21 -86 -21 -95 0 -33 29 -16 51
31 21 41 25 65 29 170 0 24 30 12 30 -13 0 -52 59 -17 94 55 22 47 33 55 54
41 11 -7 11 -17 -4 -59 -10 -28 -15 -55 -10 -59 18 -18 75 70 111 172 43 121
124 255 154 255 11 0 27 -10 35 -21z m-2835 -23 c18 -19 22 -32 17 -51 -7 -27
-80 -147 -127 -206 -15 -19 -31 -48 -34 -65 -7 -29 -7 -29 15 6 30 47 79 99
111 115 22 12 29 12 48 -1 11 -8 21 -19 21 -24 0 -19 -61 -77 -100 -95 -44
-20 -45 -22 -28 -60 17 -38 40 -31 101 31 36 36 57 51 62 44 10 -16 -106 -127
-141 -136 -23 -6 -32 -2 -55 26 l-27 32 -17 -31 c-19 -38 -58 -40 -63 -5 -3
19 -8 16 -49 -27 -53 -57 -81 -69 -100 -43 -17 23 -17 58 1 92 7 15 17 38 21
51 7 24 7 24 -46 18 -30 -4 -56 -12 -58 -19 -2 -7 -23 -32 -46 -55 -51 -52
-92 -58 -124 -17 -11 14 -21 29 -23 33 -2 5 -17 6 -35 4 -23 -4 -35 -13 -43
-34 -13 -30 -73 -89 -90 -89 -6 0 -19 9 -30 20 -16 16 -18 28 -14 62 l6 43
-41 -38 c-78 -70 -115 -38 -82 71 22 73 52 115 76 106 20 -8 19 -12 -10 -78
-14 -31 -25 -68 -25 -83 l0 -26 26 24 c14 13 42 48 61 77 22 32 42 52 54 52
23 0 24 -18 4 -84 -16 -53 -20 -106 -7 -106 11 0 62 95 62 116 0 27 37 84 55
84 19 0 19 -13 -1 -51 -31 -61 12 -45 70 25 21 26 43 46 49 46 7 1 21 15 32
33 24 38 59 46 87 20 16 -15 19 -27 16 -65 -4 -42 -3 -48 13 -48 13 0 19 7 19
23 0 28 17 47 42 47 20 0 23 -12 8 -41 -9 -16 -7 -19 12 -19 13 0 30 -4 38
-10 14 -9 9 -31 -36 -145 -7 -18 -6 -19 10 -5 50 40 110 135 128 202 40 149
110 278 150 278 8 0 25 -11 37 -24z m1895 -2 c24 -23 21 -146 -4 -219 -56
-163 -129 -265 -189 -265 -29 0 -63 29 -75 65 -5 16 -2 14 19 -7 14 -16 29
-28 33 -28 34 0 97 113 146 261 52 155 48 183 -15 107 -91 -110 -188 -283
-212 -379 -15 -56 -28 -69 -52 -49 -22 18 -18 65 16 196 32 125 109 301 135
311 9 3 23 -1 32 -10 14 -15 13 -20 -10 -64 -32 -60 -81 -183 -75 -189 3 -3
17 17 32 43 52 89 179 243 202 243 1 0 9 -7 17 -16z m-3230 0 c22 -9 21 -17
-19 -78 -19 -30 -35 -58 -35 -61 0 -3 19 -5 42 -5 53 0 38 -20 -18 -23 -38 -3
-39 -4 -69 -77 -38 -91 -78 -226 -73 -242 3 -7 42 35 87 92 45 58 99 121 119
141 20 20 45 45 54 57 22 28 52 28 79 1 18 -18 20 -29 15 -66 -5 -42 -4 -44
17 -41 35 4 32 -16 -4 -25 -17 -4 -43 -22 -58 -40 -71 -86 -111 -99 -154 -48
l-25 30 -53 -71 c-30 -39 -62 -76 -71 -82 -26 -16 -58 18 -58 63 0 43 29 150
64 239 l25 62 -65 0 c-85 0 -82 17 6 26 l70 7 35 63 c20 35 43 68 53 73 21 13
17 12 36 5z m2774 -27 c2 -9 -8 -42 -22 -72 -33 -68 -50 -113 -39 -100 5 6 28
36 52 67 24 32 61 74 82 93 33 30 43 34 60 25 54 -30 36 -132 -38 -216 -33
-37 -128 -103 -152 -106 -9 0 -23 -1 -31 -2 -9 -1 -22 -27 -36 -69 -21 -71
-36 -89 -62 -80 -11 5 -13 17 -8 54 12 90 101 326 152 404 18 28 37 28 42 2z
m642 -2 c14 -13 30 -13 99 -4 46 5 86 8 89 5 9 -10 -101 -54 -150 -61 -42 -6
-48 -10 -54 -38 -3 -17 -15 -51 -25 -74 l-18 -43 60 0 c74 0 70 -13 -9 -29
l-59 -11 -37 -107 c-20 -59 -40 -111 -45 -116 -15 -15 -51 12 -51 37 0 13 13
56 30 95 24 59 27 73 15 78 -22 8 -18 33 4 33 14 0 27 16 44 53 40 87 42 106
12 117 -14 5 -25 14 -25 20 0 11 7 14 53 24 15 4 27 13 27 21 0 19 19 19 40 0z
m-3759 -26 c20 -20 20 -28 -1 -84 -4 -11 -36 -58 -70 -105 -64 -86 -80 -124
-79 -195 l0 -40 27 31 c15 17 49 59 75 93 44 56 67 74 67 53 0 -5 -12 -22 -26
-38 -14 -16 -50 -62 -80 -101 -41 -56 -60 -73 -79 -73 -29 0 -45 26 -45 70 l0
32 -31 -26 c-53 -45 -89 -32 -89 32 0 26 -2 25 -41 -20 -29 -34 -48 -48 -66
-48 -38 0 -63 27 -63 69 -1 34 -1 35 -16 16 -39 -52 -77 -85 -100 -85 -32 0
-64 33 -64 67 l0 26 -23 -21 c-13 -12 -31 -22 -40 -22 -26 0 -46 38 -40 76 7
43 0 43 -27 -1 -12 -19 -28 -35 -35 -35 -35 0 -35 59 -1 142 19 44 32 54 51
38 11 -9 11 -16 -5 -43 -10 -18 -21 -45 -25 -62 -5 -24 2 -18 38 32 53 71 63
79 82 63 20 -17 19 -37 -4 -68 -24 -34 -45 -105 -28 -96 28 16 61 53 93 102
39 59 71 77 109 60 46 -21 29 -70 -40 -118 -41 -28 -45 -35 -45 -70 0 -22 5
-40 10 -40 17 0 92 83 120 130 31 55 83 110 103 110 8 0 25 -8 38 -19 20 -16
21 -21 10 -47 -10 -25 -44 -57 -87 -82 -6 -4 -15 -26 -19 -49 -5 -34 -4 -43 8
-43 14 0 70 57 140 143 40 50 59 56 94 32 20 -14 21 -13 28 13 3 15 24 64 45
109 27 57 46 86 66 97 38 20 40 20 65 -5z m4275 -84 c8 -19 -23 -84 -42 -92
-23 -9 -27 3 -14 44 7 21 14 44 16 51 5 17 33 15 40 -3z m479 -106 c-4 -15 -3
-48 0 -73 l7 -45 37 19 c20 11 44 26 53 32 9 7 20 9 24 5 10 -10 -24 -44 -69
-70 -31 -17 -38 -26 -34 -45 7 -36 -11 -89 -36 -107 -26 -18 -77 -20 -99 -2
-37 27 -23 74 33 113 36 25 40 31 35 58 -19 106 -19 113 3 135 28 28 54 18 46
-20z m175 -194 c0 -24 -36 -59 -53 -52 -24 9 -21 43 4 61 23 16 49 11 49 -9z"/>
<path d="M3450 2370 c0 -15 5 -20 18 -18 9 2 17 10 17 18 0 8 -8 16 -17 18
-13 2 -18 -3 -18 -18z"/>
<path d="M3620 2350 c0 -36 3 -40 25 -40 18 0 26 7 31 25 7 29 -10 55 -37 55
-15 0 -19 -8 -19 -40z"/>
<path d="M4150 2375 c-15 -19 -5 -65 15 -65 8 0 15 5 15 10 0 6 7 10 15 10 20
0 20 46 -1 54 -23 9 -30 8 -44 -9z"/>
<path d="M4660 2370 c0 -15 5 -20 18 -18 9 2 17 10 17 18 0 8 -8 16 -17 18
-13 2 -18 -3 -18 -18z"/>
<path d="M5434 2014 c-43 -79 -89 -184 -80 -184 9 0 89 125 110 172 57 127 37
135 -30 12z"/>
<path d="M5201 1825 c-23 -29 -101 -263 -101 -299 1 -18 5 -16 31 14 88 102
109 138 129 215 11 43 20 79 20 81 0 8 -73 -2 -79 -11z"/>
<path d="M5585 1740 c-8 -16 -15 -35 -15 -42 1 -18 50 39 50 58 0 24 -19 16
-35 -16z"/>
<path d="M3473 1983 c-11 -15 -23 -37 -27 -48 -5 -11 -19 -48 -32 -82 -13 -35
-22 -63 -20 -63 8 0 77 129 91 171 18 51 14 60 -12 22z"/>
<path d="M2965 1769 c-19 -36 -16 -73 6 -77 12 -2 19 9 28 42 14 58 14 66 -4
66 -8 0 -22 -14 -30 -31z"/>
<path d="M3196 1778 c-25 -39 -30 -77 -11 -84 24 -9 34 5 41 59 7 52 -5 63
-30 25z"/>
<path d="M2896 1669 c-20 -49 -20 -79 -2 -79 15 0 76 56 76 69 0 4 -13 17 -29
29 l-29 21 -16 -40z"/>
<path d="M3121 1670 c-39 -85 -16 -107 46 -45 33 33 37 55 8 55 -8 0 -18 8
-24 18 -8 14 -13 10 -30 -28z"/>
<path d="M3497 1542 c-32 -33 -34 -42 -8 -42 25 0 51 26 51 51 0 26 -12 24
-43 -9z"/>
<path d="M4697 1989 c-20 -28 -80 -179 -74 -185 8 -8 100 183 95 197 -3 8 -10
5 -21 -12z"/>
<path d="M4900 1989 c-21 -32 -39 -73 -61 -139 -15 -44 -16 -51 -3 -35 29 38
86 163 82 181 -3 16 -5 15 -18 -7z"/>
<path d="M6643 1983 c-11 -15 -23 -37 -27 -48 -5 -11 -19 -48 -32 -82 -13 -35
-22 -63 -20 -63 8 0 77 129 91 171 18 51 14 60 -12 22z"/>
<path d="M6135 1769 c-19 -36 -16 -73 6 -77 12 -2 19 9 28 42 14 58 14 66 -4
66 -8 0 -22 -14 -30 -31z"/>
<path d="M6366 1778 c-25 -39 -30 -77 -11 -84 24 -9 34 5 41 59 7 52 -5 63
-30 25z"/>
<path d="M6066 1669 c-20 -49 -20 -79 -2 -79 15 0 76 56 76 69 0 4 -13 17 -29
29 l-29 21 -16 -40z"/>
<path d="M6291 1670 c-39 -85 -16 -107 46 -45 33 33 37 55 8 55 -8 0 -18 8
-24 18 -8 14 -13 10 -30 -28z"/>
<path d="M6666 1545 c-31 -29 -33 -45 -7 -45 20 0 51 35 51 57 0 20 -14 16
-44 -12z"/>
<path d="M1809 1928 c-30 -24 -109 -129 -134 -177 -23 -46 -23 -49 -5 -44 30
8 113 96 139 147 26 53 26 95 0 74z"/>
<path d="M7426 1778 c-24 -37 -25 -88 -1 -88 18 0 32 26 37 69 4 41 -15 51
-36 19z"/>
<path d="M7351 1659 c-34 -77 -6 -95 49 -32 31 35 32 37 14 49 -11 8 -24 18
-31 23 -8 7 -17 -4 -32 -40z"/>
<path d="M7075 1458 c-48 -57 -67 -94 -60 -119 12 -37 42 3 85 110 11 28 18
51 16 51 -3 0 -21 -19 -41 -42z"/>
<path d="M1112 1733 c-12 -24 -18 -43 -12 -43 15 0 42 47 38 67 -3 13 -10 7
-26 -24z"/>
<path d="M1292 1740 c-30 -47 -28 -60 4 -29 15 16 24 34 22 45 -3 16 -8 13
-26 -16z"/>
<path d="M4847 1390 c-35 -61 -110 -221 -105 -226 8 -7 105 150 123 198 24 65
14 82 -18 28z"/>
<path d="M4569 1120 c-11 -25 -33 -83 -49 -130 -54 -163 -49 -174 30 -79 72
86 80 100 95 166 8 32 17 66 20 75 6 14 1 17 -35 15 -38 -1 -42 -4 -61 -47z"/>
<path d="M6580 1319 c-21 -32 -39 -73 -61 -139 -15 -44 -16 -51 -3 -35 29 38
86 163 82 181 -3 16 -5 15 -18 -7z"/>
<path d="M6242 1228 c-30 -53 -82 -165 -82 -177 0 -10 70 92 92 134 26 50 39
95 28 95 -5 0 -22 -24 -38 -52z"/>
<path d="M6682 1063 c-12 -24 -18 -43 -12 -43 15 0 42 47 38 67 -3 13 -10 7
-26 -24z"/>
<path d="M3744 1295 c-19 -29 -67 -156 -61 -162 7 -6 85 129 92 160 9 35 -9
36 -31 2z"/>
<path d="M3296 1108 c-25 -39 -30 -77 -11 -84 24 -9 34 5 41 59 7 52 -5 63
-30 25z"/>
<path d="M3739 1068 c-42 -50 -43 -52 -11 -29 34 24 68 68 60 77 -3 3 -25 -19
-49 -48z"/>
<path d="M3221 1000 c-39 -85 -16 -107 46 -45 33 33 37 55 8 55 -8 0 -18 8
-24 18 -8 14 -13 10 -30 -28z"/>
<path d="M2554 1094 c-18 -43 -15 -68 8 -72 12 -2 20 8 27 35 6 21 11 46 11
56 0 30 -31 18 -46 -19z"/>
<path d="M2487 995 c-20 -42 -22 -75 -4 -75 19 0 55 28 68 52 10 18 8 24 -12
39 -32 25 -33 24 -52 -16z"/>
<path d="M5309 1258 c-30 -24 -109 -129 -134 -177 -23 -46 -23 -49 -5 -44 30
8 113 96 139 147 26 53 26 95 0 74z"/>
<path d="M2057 1231 c-28 -48 -71 -168 -53 -151 28 28 86 134 86 157 0 31 -12
29 -33 -6z"/>
<path d="M1532 1063 c-12 -24 -18 -43 -12 -43 15 0 42 47 38 67 -3 13 -10 7
-26 -24z"/>
<path d="M1712 1070 c-30 -47 -28 -60 4 -29 15 16 24 34 22 45 -3 16 -8 13
-26 -16z"/>
<path d="M1855 999 c-25 -53 -32 -99 -17 -99 4 0 22 15 39 33 38 40 47 80 22
103 -18 16 -20 14 -44 -37z"/>
<path d="M6792 884 c-33 -26 -42 -54 -18 -54 19 0 43 24 51 51 10 30 3 31 -33
3z"/>
</g>
</svg>
